<mxfile host="app.diagrams.net" agent="Mozilla/5.0 (Windows NT 10.0; Win64; x64) AppleWebKit/537.36 (KHTML, like Gecko) Chrome/131.0.0.0 Safari/537.36" version="24.9.2">
  <diagram name="Trang-1" id="AbTBs2B6B3iw4CWjbH05">
    <mxGraphModel dx="1034" dy="446" grid="1" gridSize="10" guides="1" tooltips="1" connect="1" arrows="1" fold="1" page="1" pageScale="1" pageWidth="827" pageHeight="1169" math="0" shadow="0">
      <root>
        <mxCell id="0" />
        <mxCell id="1" parent="0" />
        <mxCell id="8uXWLabrZatgizdyfnBt-3" value="" style="edgeStyle=orthogonalEdgeStyle;rounded=0;orthogonalLoop=1;jettySize=auto;html=1;" edge="1" parent="1" source="8uXWLabrZatgizdyfnBt-1" target="8uXWLabrZatgizdyfnBt-2">
          <mxGeometry relative="1" as="geometry" />
        </mxCell>
        <mxCell id="8uXWLabrZatgizdyfnBt-1" value="start" style="ellipse;whiteSpace=wrap;html=1;" vertex="1" parent="1">
          <mxGeometry x="310" y="40" width="120" height="80" as="geometry" />
        </mxCell>
        <mxCell id="8uXWLabrZatgizdyfnBt-5" value="" style="edgeStyle=orthogonalEdgeStyle;rounded=0;orthogonalLoop=1;jettySize=auto;html=1;" edge="1" parent="1" source="8uXWLabrZatgizdyfnBt-2" target="8uXWLabrZatgizdyfnBt-4">
          <mxGeometry relative="1" as="geometry" />
        </mxCell>
        <mxCell id="8uXWLabrZatgizdyfnBt-2" value="nhap diem&amp;nbsp;" style="shape=parallelogram;perimeter=parallelogramPerimeter;whiteSpace=wrap;html=1;fixedSize=1;" vertex="1" parent="1">
          <mxGeometry x="310" y="170" width="120" height="60" as="geometry" />
        </mxCell>
        <mxCell id="8uXWLabrZatgizdyfnBt-7" value="" style="edgeStyle=orthogonalEdgeStyle;rounded=0;orthogonalLoop=1;jettySize=auto;html=1;" edge="1" parent="1" source="8uXWLabrZatgizdyfnBt-4" target="8uXWLabrZatgizdyfnBt-6">
          <mxGeometry relative="1" as="geometry">
            <Array as="points">
              <mxPoint x="450" y="330" />
              <mxPoint x="450" y="330" />
            </Array>
          </mxGeometry>
        </mxCell>
        <mxCell id="8uXWLabrZatgizdyfnBt-11" value="sai" style="edgeLabel;html=1;align=center;verticalAlign=middle;resizable=0;points=[];" vertex="1" connectable="0" parent="8uXWLabrZatgizdyfnBt-7">
          <mxGeometry x="0.0167" y="4" relative="1" as="geometry">
            <mxPoint as="offset" />
          </mxGeometry>
        </mxCell>
        <mxCell id="8uXWLabrZatgizdyfnBt-9" value="" style="edgeStyle=orthogonalEdgeStyle;rounded=0;orthogonalLoop=1;jettySize=auto;html=1;" edge="1" parent="1" source="8uXWLabrZatgizdyfnBt-4" target="8uXWLabrZatgizdyfnBt-8">
          <mxGeometry relative="1" as="geometry" />
        </mxCell>
        <mxCell id="8uXWLabrZatgizdyfnBt-4" value="diem &amp;gt;=5" style="rhombus;whiteSpace=wrap;html=1;" vertex="1" parent="1">
          <mxGeometry x="330" y="290" width="80" height="80" as="geometry" />
        </mxCell>
        <mxCell id="8uXWLabrZatgizdyfnBt-15" value="" style="edgeStyle=orthogonalEdgeStyle;rounded=0;orthogonalLoop=1;jettySize=auto;html=1;" edge="1" parent="1" source="8uXWLabrZatgizdyfnBt-6" target="8uXWLabrZatgizdyfnBt-14">
          <mxGeometry relative="1" as="geometry" />
        </mxCell>
        <mxCell id="8uXWLabrZatgizdyfnBt-6" value="không&amp;nbsp;" style="rhombus;whiteSpace=wrap;html=1;" vertex="1" parent="1">
          <mxGeometry x="490" y="290" width="80" height="80" as="geometry" />
        </mxCell>
        <mxCell id="8uXWLabrZatgizdyfnBt-13" value="" style="edgeStyle=orthogonalEdgeStyle;rounded=0;orthogonalLoop=1;jettySize=auto;html=1;" edge="1" parent="1" source="8uXWLabrZatgizdyfnBt-8" target="8uXWLabrZatgizdyfnBt-12">
          <mxGeometry relative="1" as="geometry" />
        </mxCell>
        <mxCell id="8uXWLabrZatgizdyfnBt-8" value="đạt" style="rhombus;whiteSpace=wrap;html=1;" vertex="1" parent="1">
          <mxGeometry x="170" y="290" width="80" height="80" as="geometry" />
        </mxCell>
        <mxCell id="8uXWLabrZatgizdyfnBt-10" value="đúng" style="text;html=1;align=center;verticalAlign=middle;resizable=0;points=[];autosize=1;strokeColor=none;fillColor=none;" vertex="1" parent="1">
          <mxGeometry x="265" y="308" width="50" height="30" as="geometry" />
        </mxCell>
        <mxCell id="8uXWLabrZatgizdyfnBt-17" value="" style="edgeStyle=orthogonalEdgeStyle;rounded=0;orthogonalLoop=1;jettySize=auto;html=1;" edge="1" parent="1" source="8uXWLabrZatgizdyfnBt-12" target="8uXWLabrZatgizdyfnBt-16">
          <mxGeometry relative="1" as="geometry" />
        </mxCell>
        <mxCell id="8uXWLabrZatgizdyfnBt-12" value="in ra đạt" style="whiteSpace=wrap;html=1;" vertex="1" parent="1">
          <mxGeometry x="150" y="460" width="120" height="60" as="geometry" />
        </mxCell>
        <mxCell id="8uXWLabrZatgizdyfnBt-19" value="" style="edgeStyle=orthogonalEdgeStyle;rounded=0;orthogonalLoop=1;jettySize=auto;html=1;" edge="1" parent="1" source="8uXWLabrZatgizdyfnBt-14" target="8uXWLabrZatgizdyfnBt-18">
          <mxGeometry relative="1" as="geometry" />
        </mxCell>
        <mxCell id="8uXWLabrZatgizdyfnBt-14" value="in ra không đạt" style="whiteSpace=wrap;html=1;" vertex="1" parent="1">
          <mxGeometry x="470" y="460" width="120" height="60" as="geometry" />
        </mxCell>
        <mxCell id="8uXWLabrZatgizdyfnBt-16" value="" style="ellipse;whiteSpace=wrap;html=1;" vertex="1" parent="1">
          <mxGeometry x="310" y="600" width="80" height="80" as="geometry" />
        </mxCell>
        <mxCell id="8uXWLabrZatgizdyfnBt-18" value="" style="ellipse;whiteSpace=wrap;html=1;" vertex="1" parent="1">
          <mxGeometry x="300" y="600" width="100" height="80" as="geometry" />
        </mxCell>
      </root>
    </mxGraphModel>
  </diagram>
</mxfile>
